<svg xmlns="http://www.w3.org/2000/svg" width="1220" height="1448" viewBox="0 0 1220 1448">
  <defs>
    <linearGradient id="bg" x1="0" y1="0" x2="0" y2="1"><stop offset="0%" stop-color="#f8fafc"/><stop offset="100%" stop-color="#eef2ff"/></linearGradient>
    <linearGradient id="hero" x1="0" y1="0" x2="1" y2="1"><stop offset="0%" stop-color="#0f172a"/><stop offset="100%" stop-color="#1e293b"/></linearGradient>
  </defs>
  <rect width="1220" height="1448" fill="url(#bg)"/>
  <rect x="36" y="28" width="1148" height="154" rx="24" fill="url(#hero)"/>
  <text x="72" y="78" font-family="Helvetica, Arial, sans-serif" font-size="30" font-weight="700" fill="#f8fafc">TPC-H Final Comparison — PG vs pg_duckdb vs pg_yaap</text>
  <text x='72' y='110' font-family='Helvetica, Arial, sans-serif' font-size='15' fill='#cbd5e1'>PG and YAAP are single-pass 120s timings. pg_duckdb uses default parallelism, LOAD 'pg_duckdb', 30s timeout, restart-and-retry until first success.</text>
  <text x="72" y="134" font-family="Helvetica, Arial, sans-serif" font-size="15" fill="#cbd5e1">Total comparison counts each timeout as 120s. Final totals: PG 447.908s, pg_duckdb 95.754s, pg_yaap 30.787s.</text>
  <rect x="72" y="148" width="14" height="14" rx="4" fill="#336791"/>
  <text x="94" y="160" font-family="Helvetica, Arial, sans-serif" font-size="13" fill="#e2e8f0">PostgreSQL parallel</text>
  <rect x="250" y="148" width="14" height="14" rx="4" fill="#ffd54f"/>
  <text x="272" y="160" font-family="Helvetica, Arial, sans-serif" font-size="13" fill="#e2e8f0">pg_duckdb</text>
  <rect x="360" y="148" width="14" height="14" rx="4" fill="#c63d2f"/>
  <text x="382" y="160" font-family="Helvetica, Arial, sans-serif" font-size="13" fill="#e2e8f0">pg_yaap</text>
  <rect x="470" y="148" width="14" height="14" rx="4" fill="#d1d5db"/>
  <text x="492" y="160" font-family="Helvetica, Arial, sans-serif" font-size="13" fill="#e2e8f0">timeout marker</text>
  <rect x="36" y="202" width="268" height="108" rx="18" fill="#ffffff" stroke="#dbeafe"/>
  <text x="60" y="236" font-family="Helvetica, Arial, sans-serif" font-size="14" font-weight="700" fill="#0f172a">Host</text>
  <text x="60" y="262" font-family="Helvetica, Arial, sans-serif" font-size="13" fill="#334155">MacBook Pro (Mac16,8)</text>
  <text x="60" y="284" font-family="Helvetica, Arial, sans-serif" font-size="13" fill="#334155">Apple M4 Pro · 24 GB RAM</text>
  <rect x="318" y="202" width="268" height="108" rx="18" fill="#ffffff" stroke="#dbeafe"/>
  <text x="342" y="236" font-family="Helvetica, Arial, sans-serif" font-size="14" font-weight="700" fill="#0f172a">CPU layout</text>
  <text x="342" y="262" font-family="Helvetica, Arial, sans-serif" font-size="13" fill="#334155">14 cores total</text>
  <text x="342" y="284" font-family="Helvetica, Arial, sans-serif" font-size="13" fill="#334155">10 Performance + 4 Efficiency</text>
  <rect x="600" y="202" width="268" height="108" rx="18" fill="#ffffff" stroke="#dbeafe"/>
  <text x="624" y="236" font-family="Helvetica, Arial, sans-serif" font-size="14" font-weight="700" fill="#0f172a">Method</text>
  <text x="624" y="262" font-family="Helvetica, Arial, sans-serif" font-size="13" fill="#334155">PG/YAAP: single pass, 120s timeout</text>
  <text x="624" y="284" font-family="Helvetica, Arial, sans-serif" font-size="13" fill="#334155">DuckDB: default parallelism + restart-and-retry</text>
  <rect x="882" y="202" width="302" height="108" rx="18" fill="#ffffff" stroke="#dbeafe"/>
  <text x="906" y="236" font-family="Helvetica, Arial, sans-serif" font-size="14" font-weight="700" fill="#0f172a">Total (timeout=120s)</text>
  <text x="906" y="262" font-family="Helvetica, Arial, sans-serif" font-size="13" fill="#334155">PG 447.908s · pg_duckdb 95.754s</text>
  <text x="906" y="284" font-family="Helvetica, Arial, sans-serif" font-size="13" fill="#334155">pg_yaap 30.787s · fastest overall</text>
  <rect x="36" y="332" width="1148" height="1080" rx="22" fill="#ffffff" stroke="#e2e8f0"/>
  <text x="72" y="368" font-family="Helvetica, Arial, sans-serif" font-size="14" font-weight="700" fill="#0f172a">Runtime scale</text>
  <text x="182" y="368" font-family="Helvetica, Arial, sans-serif" font-size="13" fill="#64748b">0s to 30s, 5s major ticks · right-hand tags show slowest/fastest multiplier (worst ÷ best; timeout = 120s)</text>
  <line x1="140.0" y1="392" x2="140.0" y2="1362" stroke="#cbd5e1" stroke-width="1.2"/>
  <text x="140.0" y="1388" text-anchor="middle" font-family="Helvetica, Arial, sans-serif" font-size="12" fill="#64748b">0s</text>
  <line x1="290.0" y1="392" x2="290.0" y2="1362" stroke="#e2e8f0" stroke-width="1"/>
  <text x="290.0" y="1388" text-anchor="middle" font-family="Helvetica, Arial, sans-serif" font-size="12" fill="#64748b">5s</text>
  <line x1="440.0" y1="392" x2="440.0" y2="1362" stroke="#e2e8f0" stroke-width="1"/>
  <text x="440.0" y="1388" text-anchor="middle" font-family="Helvetica, Arial, sans-serif" font-size="12" fill="#64748b">10s</text>
  <line x1="590.0" y1="392" x2="590.0" y2="1362" stroke="#e2e8f0" stroke-width="1"/>
  <text x="590.0" y="1388" text-anchor="middle" font-family="Helvetica, Arial, sans-serif" font-size="12" fill="#64748b">15s</text>
  <line x1="740.0" y1="392" x2="740.0" y2="1362" stroke="#e2e8f0" stroke-width="1"/>
  <text x="740.0" y="1388" text-anchor="middle" font-family="Helvetica, Arial, sans-serif" font-size="12" fill="#64748b">20s</text>
  <line x1="890.0" y1="392" x2="890.0" y2="1362" stroke="#e2e8f0" stroke-width="1"/>
  <text x="890.0" y="1388" text-anchor="middle" font-family="Helvetica, Arial, sans-serif" font-size="12" fill="#64748b">25s</text>
  <line x1="1040.0" y1="392" x2="1040.0" y2="1362" stroke="#cbd5e1" stroke-width="1.2"/>
  <text x="1040.0" y="1388" text-anchor="middle" font-family="Helvetica, Arial, sans-serif" font-size="12" fill="#64748b">30s</text>
  <line x1="140" y1="1362" x2="1040" y2="1362" stroke="#0f172a" stroke-width="1.2"/>
  <text x="122" y="418" text-anchor="end" font-family="Helvetica, Arial, sans-serif" font-size="13" font-weight="700" fill="#0f172a">Q1</text>
  <rect x="140" y="402" width="92.5" height="8" rx="4" fill="#336791"/>
  <text x="240.5" y="409" font-family="Helvetica, Arial, sans-serif" font-size="11" fill="#64748b">3.1s</text>
  <rect x="140" y="414" width="180.3" height="8" rx="4" fill="#ffd54f"/>
  <text x="328.3" y="421" font-family="Helvetica, Arial, sans-serif" font-size="11" fill="#64748b">6.0s</text>
  <rect x="140" y="426" width="60.1" height="8" rx="4" fill="#c63d2f"/>
  <text x="208.1" y="433" font-family="Helvetica, Arial, sans-serif" font-size="11" fill="#64748b">2.0s</text>
  <text x="1130" y="418" text-anchor="end" font-family="Helvetica, Arial, sans-serif" font-size="12" font-weight="700" fill="#c63d2f">3x</text>
  <text x="122" y="460" text-anchor="end" font-family="Helvetica, Arial, sans-serif" font-size="13" font-weight="700" fill="#0f172a">Q2</text>
  <rect x="140" y="444" width="900" height="8" rx="4" fill="#d1d5db"/>
  <text x="1048" y="451" font-family="Helvetica, Arial, sans-serif" font-size="11" fill="#64748b">timeout</text>
  <rect x="140" y="456" width="52.4" height="8" rx="4" fill="#ffd54f"/>
  <text x="200.4" y="463" font-family="Helvetica, Arial, sans-serif" font-size="11" fill="#64748b">1.7s</text>
  <rect x="140" y="468" width="10.3" height="8" rx="4" fill="#c63d2f"/>
  <text x="158.3" y="475" font-family="Helvetica, Arial, sans-serif" font-size="11" fill="#64748b">0.3s</text>
  <text x="1130" y="460" text-anchor="end" font-family="Helvetica, Arial, sans-serif" font-size="12" font-weight="700" fill="#c63d2f">400x</text>
  <text x="122" y="502" text-anchor="end" font-family="Helvetica, Arial, sans-serif" font-size="13" font-weight="700" fill="#0f172a">Q3</text>
  <rect x="140" y="486" width="105.7" height="8" rx="4" fill="#336791"/>
  <text x="253.7" y="493" font-family="Helvetica, Arial, sans-serif" font-size="11" fill="#64748b">3.5s</text>
  <rect x="140" y="498" width="126.9" height="8" rx="4" fill="#ffd54f"/>
  <text x="274.9" y="505" font-family="Helvetica, Arial, sans-serif" font-size="11" fill="#64748b">4.2s</text>
  <rect x="140" y="510" width="28.6" height="8" rx="4" fill="#c63d2f"/>
  <text x="176.6" y="517" font-family="Helvetica, Arial, sans-serif" font-size="11" fill="#64748b">1.0s</text>
  <text x="1130" y="502" text-anchor="end" font-family="Helvetica, Arial, sans-serif" font-size="12" font-weight="700" fill="#c63d2f">4.2x</text>
  <text x="122" y="544" text-anchor="end" font-family="Helvetica, Arial, sans-serif" font-size="13" font-weight="700" fill="#0f172a">Q4</text>
  <rect x="140" y="528" width="120.3" height="8" rx="4" fill="#336791"/>
  <text x="268.3" y="535" font-family="Helvetica, Arial, sans-serif" font-size="11" fill="#64748b">4.0s</text>
  <rect x="140" y="540" width="119.5" height="8" rx="4" fill="#ffd54f"/>
  <text x="267.5" y="547" font-family="Helvetica, Arial, sans-serif" font-size="11" fill="#64748b">4.0s</text>
  <rect x="140" y="552" width="39.8" height="8" rx="4" fill="#c63d2f"/>
  <text x="187.8" y="559" font-family="Helvetica, Arial, sans-serif" font-size="11" fill="#64748b">1.3s</text>
  <text x="1130" y="544" text-anchor="end" font-family="Helvetica, Arial, sans-serif" font-size="12" font-weight="700" fill="#c63d2f">3.08x</text>
  <text x="122" y="586" text-anchor="end" font-family="Helvetica, Arial, sans-serif" font-size="13" font-weight="700" fill="#0f172a">Q5</text>
  <rect x="140" y="570" width="61.6" height="8" rx="4" fill="#336791"/>
  <text x="209.6" y="577" font-family="Helvetica, Arial, sans-serif" font-size="11" fill="#64748b">2.1s</text>
  <rect x="140" y="582" width="157.6" height="8" rx="4" fill="#ffd54f"/>
  <text x="305.6" y="589" font-family="Helvetica, Arial, sans-serif" font-size="11" fill="#64748b">5.3s</text>
  <rect x="140" y="594" width="30.6" height="8" rx="4" fill="#c63d2f"/>
  <text x="178.6" y="601" font-family="Helvetica, Arial, sans-serif" font-size="11" fill="#64748b">1.0s</text>
  <text x="1130" y="586" text-anchor="end" font-family="Helvetica, Arial, sans-serif" font-size="12" font-weight="700" fill="#c63d2f">5.3x</text>
  <text x="122" y="628" text-anchor="end" font-family="Helvetica, Arial, sans-serif" font-size="13" font-weight="700" fill="#0f172a">Q6</text>
  <rect x="140" y="612" width="47.3" height="8" rx="4" fill="#336791"/>
  <text x="195.3" y="619" font-family="Helvetica, Arial, sans-serif" font-size="11" fill="#64748b">1.6s</text>
  <rect x="140" y="624" width="125.2" height="8" rx="4" fill="#ffd54f"/>
  <text x="273.2" y="631" font-family="Helvetica, Arial, sans-serif" font-size="11" fill="#64748b">4.2s</text>
  <rect x="140" y="636" width="16.4" height="8" rx="4" fill="#c63d2f"/>
  <text x="164.4" y="643" font-family="Helvetica, Arial, sans-serif" font-size="11" fill="#64748b">0.5s</text>
  <text x="1130" y="628" text-anchor="end" font-family="Helvetica, Arial, sans-serif" font-size="12" font-weight="700" fill="#c63d2f">8.4x</text>
  <text x="122" y="670" text-anchor="end" font-family="Helvetica, Arial, sans-serif" font-size="13" font-weight="700" fill="#0f172a">Q7</text>
  <rect x="140" y="654" width="62.9" height="8" rx="4" fill="#336791"/>
  <text x="210.9" y="661" font-family="Helvetica, Arial, sans-serif" font-size="11" fill="#64748b">2.1s</text>
  <rect x="140" y="666" width="149.8" height="8" rx="4" fill="#ffd54f"/>
  <text x="297.8" y="673" font-family="Helvetica, Arial, sans-serif" font-size="11" fill="#64748b">5.0s</text>
  <rect x="140" y="678" width="33.0" height="8" rx="4" fill="#c63d2f"/>
  <text x="181.0" y="685" font-family="Helvetica, Arial, sans-serif" font-size="11" fill="#64748b">1.1s</text>
  <text x="1130" y="670" text-anchor="end" font-family="Helvetica, Arial, sans-serif" font-size="12" font-weight="700" fill="#c63d2f">4.55x</text>
  <text x="122" y="712" text-anchor="end" font-family="Helvetica, Arial, sans-serif" font-size="13" font-weight="700" fill="#0f172a">Q8</text>
  <rect x="140" y="696" width="99.6" height="8" rx="4" fill="#336791"/>
  <text x="247.6" y="703" font-family="Helvetica, Arial, sans-serif" font-size="11" fill="#64748b">3.3s</text>
  <rect x="140" y="708" width="160.9" height="8" rx="4" fill="#ffd54f"/>
  <text x="308.9" y="715" font-family="Helvetica, Arial, sans-serif" font-size="11" fill="#64748b">5.4s</text>
  <rect x="140" y="720" width="28.3" height="8" rx="4" fill="#c63d2f"/>
  <text x="176.3" y="727" font-family="Helvetica, Arial, sans-serif" font-size="11" fill="#64748b">0.9s</text>
  <text x="1130" y="712" text-anchor="end" font-family="Helvetica, Arial, sans-serif" font-size="12" font-weight="700" fill="#c63d2f">6x</text>
  <text x="122" y="754" text-anchor="end" font-family="Helvetica, Arial, sans-serif" font-size="13" font-weight="700" fill="#0f172a">Q9</text>
  <rect x="140" y="738" width="602.0" height="8" rx="4" fill="#336791"/>
  <text x="750.0" y="745" font-family="Helvetica, Arial, sans-serif" font-size="11" fill="#64748b">20.1s</text>
  <rect x="140" y="750" width="181.5" height="8" rx="4" fill="#ffd54f"/>
  <text x="329.5" y="757" font-family="Helvetica, Arial, sans-serif" font-size="11" fill="#64748b">6.0s</text>
  <rect x="140" y="762" width="46.7" height="8" rx="4" fill="#c63d2f"/>
  <text x="194.7" y="769" font-family="Helvetica, Arial, sans-serif" font-size="11" fill="#64748b">1.6s</text>
  <text x="1130" y="754" text-anchor="end" font-family="Helvetica, Arial, sans-serif" font-size="12" font-weight="700" fill="#c63d2f">12.56x</text>
  <text x="122" y="796" text-anchor="end" font-family="Helvetica, Arial, sans-serif" font-size="13" font-weight="700" fill="#0f172a">Q10</text>
  <rect x="140" y="780" width="114.1" height="8" rx="4" fill="#336791"/>
  <text x="262.1" y="787" font-family="Helvetica, Arial, sans-serif" font-size="11" fill="#64748b">3.8s</text>
  <rect x="140" y="792" width="136.4" height="8" rx="4" fill="#ffd54f"/>
  <text x="284.4" y="799" font-family="Helvetica, Arial, sans-serif" font-size="11" fill="#64748b">4.5s</text>
  <rect x="140" y="804" width="102.7" height="8" rx="4" fill="#c63d2f"/>
  <text x="250.7" y="811" font-family="Helvetica, Arial, sans-serif" font-size="11" fill="#64748b">3.4s</text>
  <text x="1130" y="796" text-anchor="end" font-family="Helvetica, Arial, sans-serif" font-size="12" font-weight="700" fill="#c63d2f">1.32x</text>
  <text x="122" y="838" text-anchor="end" font-family="Helvetica, Arial, sans-serif" font-size="13" font-weight="700" fill="#0f172a">Q11</text>
  <rect x="140" y="822" width="14.1" height="8" rx="4" fill="#336791"/>
  <text x="162.1" y="829" font-family="Helvetica, Arial, sans-serif" font-size="11" fill="#64748b">0.5s</text>
  <rect x="140" y="834" width="42.7" height="8" rx="4" fill="#ffd54f"/>
  <text x="190.7" y="841" font-family="Helvetica, Arial, sans-serif" font-size="11" fill="#64748b">1.4s</text>
  <rect x="140" y="846" width="7.0" height="8" rx="4" fill="#c63d2f"/>
  <text x="155.0" y="853" font-family="Helvetica, Arial, sans-serif" font-size="11" fill="#64748b">0.2s</text>
  <text x="1130" y="838" text-anchor="end" font-family="Helvetica, Arial, sans-serif" font-size="12" font-weight="700" fill="#c63d2f">7x</text>
  <text x="122" y="880" text-anchor="end" font-family="Helvetica, Arial, sans-serif" font-size="13" font-weight="700" fill="#0f172a">Q12</text>
  <rect x="140" y="864" width="99.8" height="8" rx="4" fill="#336791"/>
  <text x="247.8" y="871" font-family="Helvetica, Arial, sans-serif" font-size="11" fill="#64748b">3.3s</text>
  <rect x="140" y="876" width="127.8" height="8" rx="4" fill="#ffd54f"/>
  <text x="275.8" y="883" font-family="Helvetica, Arial, sans-serif" font-size="11" fill="#64748b">4.3s</text>
  <rect x="140" y="888" width="21.2" height="8" rx="4" fill="#c63d2f"/>
  <text x="169.2" y="895" font-family="Helvetica, Arial, sans-serif" font-size="11" fill="#64748b">0.7s</text>
  <text x="1130" y="880" text-anchor="end" font-family="Helvetica, Arial, sans-serif" font-size="12" font-weight="700" fill="#c63d2f">6.14x</text>
  <text x="122" y="922" text-anchor="end" font-family="Helvetica, Arial, sans-serif" font-size="13" font-weight="700" fill="#0f172a">Q13</text>
  <rect x="140" y="906" width="178.2" height="8" rx="4" fill="#336791"/>
  <text x="326.2" y="913" font-family="Helvetica, Arial, sans-serif" font-size="11" fill="#64748b">5.9s</text>
  <rect x="140" y="918" width="36.8" height="8" rx="4" fill="#ffd54f"/>
  <text x="184.8" y="925" font-family="Helvetica, Arial, sans-serif" font-size="11" fill="#64748b">1.2s</text>
  <rect x="140" y="930" width="48.6" height="8" rx="4" fill="#c63d2f"/>
  <text x="196.6" y="937" font-family="Helvetica, Arial, sans-serif" font-size="11" fill="#64748b">1.6s</text>
  <text x="1130" y="922" text-anchor="end" font-family="Helvetica, Arial, sans-serif" font-size="12" font-weight="700" fill="#ffd54f">4.92x</text>
  <text x="122" y="964" text-anchor="end" font-family="Helvetica, Arial, sans-serif" font-size="13" font-weight="700" fill="#0f172a">Q14</text>
  <rect x="140" y="948" width="82.8" height="8" rx="4" fill="#336791"/>
  <text x="230.8" y="955" font-family="Helvetica, Arial, sans-serif" font-size="11" fill="#64748b">2.8s</text>
  <rect x="140" y="960" width="105.2" height="8" rx="4" fill="#ffd54f"/>
  <text x="253.2" y="967" font-family="Helvetica, Arial, sans-serif" font-size="11" fill="#64748b">3.5s</text>
  <rect x="140" y="972" width="16.9" height="8" rx="4" fill="#c63d2f"/>
  <text x="164.9" y="979" font-family="Helvetica, Arial, sans-serif" font-size="11" fill="#64748b">0.6s</text>
  <text x="1130" y="964" text-anchor="end" font-family="Helvetica, Arial, sans-serif" font-size="12" font-weight="700" fill="#c63d2f">5.83x</text>
  <text x="122" y="1006" text-anchor="end" font-family="Helvetica, Arial, sans-serif" font-size="13" font-weight="700" fill="#0f172a">Q15</text>
  <rect x="140" y="990" width="147.7" height="8" rx="4" fill="#336791"/>
  <text x="295.7" y="997" font-family="Helvetica, Arial, sans-serif" font-size="11" fill="#64748b">4.9s</text>
  <rect x="140" y="1002" width="173.8" height="8" rx="4" fill="#ffd54f"/>
  <text x="321.8" y="1009" font-family="Helvetica, Arial, sans-serif" font-size="11" fill="#64748b">5.8s</text>
  <rect x="140" y="1014" width="31.9" height="8" rx="4" fill="#c63d2f"/>
  <text x="179.9" y="1021" font-family="Helvetica, Arial, sans-serif" font-size="11" fill="#64748b">1.1s</text>
  <text x="1130" y="1006" text-anchor="end" font-family="Helvetica, Arial, sans-serif" font-size="12" font-weight="700" fill="#c63d2f">5.27x</text>
  <text x="122" y="1048" text-anchor="end" font-family="Helvetica, Arial, sans-serif" font-size="13" font-weight="700" fill="#0f172a">Q16</text>
  <rect x="140" y="1032" width="20.1" height="8" rx="4" fill="#336791"/>
  <text x="168.1" y="1039" font-family="Helvetica, Arial, sans-serif" font-size="11" fill="#64748b">0.7s</text>
  <rect x="140" y="1044" width="29.8" height="8" rx="4" fill="#ffd54f"/>
  <text x="177.8" y="1051" font-family="Helvetica, Arial, sans-serif" font-size="11" fill="#64748b">1.0s</text>
  <rect x="140" y="1056" width="33.4" height="8" rx="4" fill="#c63d2f"/>
  <text x="181.4" y="1063" font-family="Helvetica, Arial, sans-serif" font-size="11" fill="#64748b">1.1s</text>
  <text x="1130" y="1048" text-anchor="end" font-family="Helvetica, Arial, sans-serif" font-size="12" font-weight="700" fill="#336791">1.57x</text>
  <text x="122" y="1090" text-anchor="end" font-family="Helvetica, Arial, sans-serif" font-size="13" font-weight="700" fill="#0f172a">Q17</text>
  <rect x="140" y="1074" width="900" height="8" rx="4" fill="#d1d5db"/>
  <text x="1048" y="1081" font-family="Helvetica, Arial, sans-serif" font-size="11" fill="#64748b">timeout</text>
  <rect x="140" y="1086" width="180.1" height="8" rx="4" fill="#ffd54f"/>
  <text x="328.1" y="1093" font-family="Helvetica, Arial, sans-serif" font-size="11" fill="#64748b">6.0s</text>
  <rect x="140" y="1098" width="51.5" height="8" rx="4" fill="#c63d2f"/>
  <text x="199.5" y="1105" font-family="Helvetica, Arial, sans-serif" font-size="11" fill="#64748b">1.7s</text>
  <text x="1130" y="1090" text-anchor="end" font-family="Helvetica, Arial, sans-serif" font-size="12" font-weight="700" fill="#c63d2f">70.59x</text>
  <text x="122" y="1132" text-anchor="end" font-family="Helvetica, Arial, sans-serif" font-size="13" font-weight="700" fill="#0f172a">Q18</text>
  <rect x="140" y="1116" width="442.5" height="8" rx="4" fill="#336791"/>
  <text x="590.5" y="1123" font-family="Helvetica, Arial, sans-serif" font-size="11" fill="#64748b">14.7s</text>
  <rect x="140" y="1128" width="195.3" height="8" rx="4" fill="#ffd54f"/>
  <text x="343.3" y="1135" font-family="Helvetica, Arial, sans-serif" font-size="11" fill="#64748b">6.5s</text>
  <rect x="140" y="1140" width="129.2" height="8" rx="4" fill="#c63d2f"/>
  <text x="277.2" y="1147" font-family="Helvetica, Arial, sans-serif" font-size="11" fill="#64748b">4.3s</text>
  <text x="1130" y="1132" text-anchor="end" font-family="Helvetica, Arial, sans-serif" font-size="12" font-weight="700" fill="#c63d2f">3.42x</text>
  <text x="122" y="1174" text-anchor="end" font-family="Helvetica, Arial, sans-serif" font-size="13" font-weight="700" fill="#0f172a">Q19</text>
  <rect x="140" y="1158" width="58.8" height="8" rx="4" fill="#336791"/>
  <text x="206.8" y="1165" font-family="Helvetica, Arial, sans-serif" font-size="11" fill="#64748b">2.0s</text>
  <rect x="140" y="1170" width="85.0" height="8" rx="4" fill="#ffd54f"/>
  <text x="233.0" y="1177" font-family="Helvetica, Arial, sans-serif" font-size="11" fill="#64748b">2.8s</text>
  <rect x="140" y="1182" width="20.8" height="8" rx="4" fill="#c63d2f"/>
  <text x="168.8" y="1189" font-family="Helvetica, Arial, sans-serif" font-size="11" fill="#64748b">0.7s</text>
  <text x="1130" y="1174" text-anchor="end" font-family="Helvetica, Arial, sans-serif" font-size="12" font-weight="700" fill="#c63d2f">4x</text>
  <text x="122" y="1216" text-anchor="end" font-family="Helvetica, Arial, sans-serif" font-size="13" font-weight="700" fill="#0f172a">Q20</text>
  <rect x="140" y="1200" width="900" height="8" rx="4" fill="#d1d5db"/>
  <text x="1048" y="1207" font-family="Helvetica, Arial, sans-serif" font-size="11" fill="#64748b">timeout</text>
  <rect x="140" y="1212" width="119.2" height="8" rx="4" fill="#ffd54f"/>
  <text x="267.2" y="1219" font-family="Helvetica, Arial, sans-serif" font-size="11" fill="#64748b">4.0s</text>
  <rect x="140" y="1224" width="19.8" height="8" rx="4" fill="#c63d2f"/>
  <text x="167.8" y="1231" font-family="Helvetica, Arial, sans-serif" font-size="11" fill="#64748b">0.7s</text>
  <text x="1130" y="1216" text-anchor="end" font-family="Helvetica, Arial, sans-serif" font-size="12" font-weight="700" fill="#c63d2f">171.43x</text>
  <text x="122" y="1258" text-anchor="end" font-family="Helvetica, Arial, sans-serif" font-size="13" font-weight="700" fill="#0f172a">Q21</text>
  <rect x="140" y="1242" width="277.2" height="8" rx="4" fill="#336791"/>
  <text x="425.2" y="1249" font-family="Helvetica, Arial, sans-serif" font-size="11" fill="#64748b">9.2s</text>
  <rect x="140" y="1254" width="347.8" height="8" rx="4" fill="#ffd54f"/>
  <text x="495.8" y="1261" font-family="Helvetica, Arial, sans-serif" font-size="11" fill="#64748b">11.6s</text>
  <rect x="140" y="1266" width="137.0" height="8" rx="4" fill="#c63d2f"/>
  <text x="285.0" y="1273" font-family="Helvetica, Arial, sans-serif" font-size="11" fill="#64748b">4.6s</text>
  <text x="1130" y="1258" text-anchor="end" font-family="Helvetica, Arial, sans-serif" font-size="12" font-weight="700" fill="#c63d2f">2.52x</text>
  <text x="122" y="1300" text-anchor="end" font-family="Helvetica, Arial, sans-serif" font-size="13" font-weight="700" fill="#0f172a">Q22</text>
  <rect x="140" y="1284" width="10.3" height="8" rx="4" fill="#336791"/>
  <text x="158.3" y="1291" font-family="Helvetica, Arial, sans-serif" font-size="11" fill="#64748b">0.3s</text>
  <rect x="140" y="1296" width="38.6" height="8" rx="4" fill="#ffd54f"/>
  <text x="186.6" y="1303" font-family="Helvetica, Arial, sans-serif" font-size="11" fill="#64748b">1.3s</text>
  <rect x="140" y="1308" width="9.7" height="8" rx="4" fill="#c63d2f"/>
  <text x="157.7" y="1315" font-family="Helvetica, Arial, sans-serif" font-size="11" fill="#64748b">0.3s</text>
  <text x="1130" y="1300" text-anchor="end" font-family="Helvetica, Arial, sans-serif" font-size="12" font-weight="700" fill="#c63d2f">4.33x</text>
  <text x="72" y="1402" font-family="Helvetica, Arial, sans-serif" font-size="12" fill="#64748b">Right-hand labels show multiplier = slowest_time / fastest_time (timeout = 120s when a run timed out).</text>
  <text x="72" y="1422" font-family="Helvetica, Arial, sans-serif" font-size="12" fill="#64748b">DuckDB values come from the final default-parallel restart-and-retry summary; PG and YAAP values are the updated single-pass timings. This chart matches the visual style of tpch_pg_vs_yaap.svg.</text>
</svg>